<svg width="438" height="160" viewBox="0 0 438 160" fill="none" xmlns="http://www.w3.org/2000/svg">
<g clip-path="url(#clip0)">
<path fill-rule="evenodd" clip-rule="evenodd" d="M73.924 0C114.813 0 148.079 31.3957 148.079 69.9477C148.079 108.5 114.813 139.664 73.924 139.664C33.2658 139.664 0 108.5 0 69.9477C0 31.3957 33.2658 0 73.924 0Z" fill="#3B332F" stroke="#2B2A29" stroke-width="0.200051"/>
<path fill-rule="evenodd" clip-rule="evenodd" d="M11.5506 9.69571C9.93352 10.3883 31.6487 1.38509 45.0474 3.6936C59.3702 6.23295 32.8038 65.7923 31.4177 71.3328C34.4209 66.0232 84.0886 -19.3914 84.0886 8.31061C83.1645 25.3935 60.0633 74.5647 57.2911 92.3401C62.3734 79.1817 103.725 23.085 112.965 22.6233C127.519 22.6233 118.278 102.959 123.592 102.959C128.905 102.959 160.092 80.7976 161.478 78.72C162.633 78.2583 432.687 77.3349 433.611 77.3349C433.842 77.7966 433.611 80.3359 433.611 81.0285L163.095 82.6444C157.089 87.2614 124.516 119.35 119.434 106.884C113.889 93.0327 118.509 40.6297 110.424 39.7063C97.0253 41.3222 63.2974 105.499 48.5126 109.885C38.1171 108.269 73.462 34.6276 72.0759 25.1627C56.3671 47.0935 31.1867 76.8732 14.5538 111.039C8.77845 117.965 4.1582 116.349 7.62339 103.883C9.7025 89.1082 51.2848 13.6202 29.3386 17.0829C21.4841 18.468 7.8544 23.5467 6.69934 23.085C11.5506 9.69571 6.69934 23.085 11.5506 9.69571Z" fill="url(#paint0_linear)"/>
<path fill-rule="evenodd" clip-rule="evenodd" d="M100.952 66.7158C102.108 66.2541 100.952 67.6392 101.183 66.4849C109.962 59.5594 112.503 63.7147 111.117 73.6413L101.877 120.966C106.497 120.735 113.427 120.504 115.044 120.504C123.361 119.811 116.199 125.352 113.889 126.968C110.886 128.815 105.573 129.045 100.721 129.507L97.7183 144.974C97.4873 145.205 98.8733 146.821 88.7088 147.513H88.4778C89.8639 141.742 88.2468 148.668 91.943 130.2L54.9809 131.816C51.5158 131.585 59.3702 118.657 65.8385 108.731C78.7752 89.1082 98.8733 68.1009 100.952 66.7158ZM67.6866 122.351L93.7911 121.196L103.956 73.8721C90.3259 84.9529 72.3069 105.499 67.6866 122.351Z" fill="url(#paint1_linear)"/>
</g>
<defs>
<linearGradient id="paint0_linear" x1="4.55529" y1="50.1839" x2="433.026" y2="50.1839" gradientUnits="userSpaceOnUse">
<stop stop-color="#36398A"/>
<stop offset="0.0588235" stop-color="#1C4E9B"/>
<stop offset="0.141176" stop-color="#FF3300"/>
<stop offset="1" stop-color="#FF6600"/>
</linearGradient>
<linearGradient id="paint1_linear" x1="54.2128" y1="105.334" x2="118.977" y2="105.333" gradientUnits="userSpaceOnUse">
<stop stop-color="#660000"/>
<stop offset="0.231373" stop-color="#6D0002"/>
<stop offset="1" stop-color="#FF9900"/>
</linearGradient>
<clipPath id="clip0">
<rect width="438" height="160" fill="white"/>
</clipPath>
</defs>
</svg>
