<svg width="533" height="195" viewBox="0 0 533 195" fill="none" xmlns="http://www.w3.org/2000/svg">
<g clip-path="url(#clip0)">
<path d="M213.978 62.1461C212.853 64.1155 210.604 66.929 207.793 70.3052C207.512 70.3052 206.669 70.3052 204.701 70.0238C197.673 69.7425 192.613 69.7425 189.802 70.0238C189.239 70.0238 188.958 70.0238 188.677 70.0238L186.99 70.3052V67.4917C186.99 66.929 187.272 66.0849 187.272 64.9595C187.272 60.7393 187.272 56.5191 187.272 52.2988V49.7667L180.244 50.048C181.93 48.6413 184.179 46.1092 187.272 42.4516V30.635L180.244 30.9163C183.055 28.3842 185.585 26.1334 187.553 23.6012C190.926 23.8826 194.299 24.1639 197.673 24.1639C200.765 24.1639 204.139 23.8826 208.074 23.6012C209.761 23.3199 211.167 23.3199 212.291 23.0386C212.01 23.3199 211.729 23.8826 211.167 24.4453C208.355 28.1028 206.388 30.0723 205.544 30.635C204.701 31.1977 202.733 31.479 199.36 31.7604C197.954 31.7604 196.267 31.7604 194.299 32.0417V41.8889C197.392 41.8889 202.171 41.8889 208.637 41.6076C208.074 42.733 207.231 43.8584 206.669 44.7024C204.982 46.9532 203.858 48.0786 202.733 48.9227C201.609 49.4853 200.203 50.048 198.516 50.048C197.954 50.048 197.111 50.048 196.267 49.7667C195.705 49.7667 195.143 49.7667 194.581 49.7667H194.299V52.2988C194.581 55.675 194.581 58.7699 194.581 61.5834V62.1461V62.7087C199.922 62.4274 204.139 62.4274 206.95 62.4274C208.074 62.4274 209.199 62.1461 210.604 62.1461H213.978ZM241.808 70.3052V54.5496C241.808 53.1429 241.808 52.0175 241.527 50.8921C241.527 50.048 241.246 49.204 240.965 48.36C240.965 47.7973 240.403 47.2346 239.841 46.9532C239.56 46.6719 238.716 46.6719 237.873 46.6719C237.311 46.6719 236.467 46.9532 235.624 47.5159C234.781 48.0786 233.656 48.9227 232.813 50.048C232.813 50.3294 232.813 50.6107 232.813 50.8921C232.813 51.1734 232.813 51.7361 232.813 52.2988V70.3052H229.158V54.5496C229.158 53.1429 229.158 52.0175 229.158 50.8921C229.158 50.048 228.877 49.204 228.596 48.36C228.315 47.7973 228.034 47.2346 227.471 46.9532C226.909 46.6719 226.347 46.6719 225.504 46.6719C224.66 46.6719 223.817 46.9532 222.974 47.5159C222.13 48.0786 221.287 48.9227 220.443 49.7667V70.3052H216.789V43.0143H220.443V46.1092C221.287 44.7024 222.411 43.8584 223.255 43.2957C224.379 42.4516 225.222 42.1703 226.347 42.1703C227.753 42.1703 228.877 42.4516 230.002 43.2957C230.845 44.1397 231.688 45.2651 232.25 46.9532C233.375 45.2651 234.499 44.1397 235.624 43.2957C236.467 42.4516 237.592 42.1703 238.997 42.1703C239.841 42.1703 240.684 42.4516 241.527 42.733C242.371 43.0143 242.933 43.577 243.495 44.4211C244.057 45.2651 244.62 46.3905 244.901 47.5159C245.182 48.9227 245.463 50.3294 245.463 52.2988V70.3052H241.808ZM275.543 70.3052V54.5496C275.543 53.1429 275.543 52.0175 275.543 50.8921C275.543 50.048 275.262 49.204 274.98 48.36C274.699 47.7973 274.418 47.2346 273.856 46.9532C273.294 46.6719 272.731 46.6719 271.888 46.6719C271.045 46.6719 270.483 46.9532 269.358 47.5159C268.515 48.0786 267.671 48.9227 266.828 50.048C266.828 50.3294 266.828 50.6107 266.828 50.8921C266.828 51.1734 266.828 51.7361 266.828 52.2988V70.3052H263.173V54.5496C263.173 53.1429 263.173 52.0175 262.892 50.8921C262.892 50.048 262.892 49.204 262.611 48.36C262.33 47.7973 261.768 47.2346 261.487 46.9532C260.925 46.6719 260.362 46.6719 259.519 46.6719C258.676 46.6719 257.832 46.9532 256.989 47.5159C256.145 48.0786 255.302 48.9227 254.459 49.7667V70.3052H250.523V43.0143H254.459V46.1092C255.302 44.7024 256.427 43.8584 257.27 43.2957C258.113 42.4516 259.238 42.1703 260.362 42.1703C261.768 42.1703 262.892 42.4516 263.736 43.2957C264.86 44.1397 265.704 45.2651 266.266 46.9532C267.39 45.2651 268.234 44.1397 269.358 43.2957C270.483 42.4516 271.607 42.1703 273.013 42.1703C273.856 42.1703 274.699 42.4516 275.543 42.733C276.105 43.0143 276.948 43.577 277.51 44.4211C278.073 45.2651 278.635 46.3905 278.916 47.5159C279.197 48.9227 279.478 50.3294 279.478 52.2988V70.3052H275.543ZM294.096 70.8679C290.723 70.8679 287.912 69.7425 285.944 67.2103C283.976 64.6782 283.133 61.302 283.133 56.8004C283.133 52.2988 283.976 48.6413 285.944 46.1092C287.631 43.577 290.161 42.1703 293.253 42.1703C294.659 42.1703 295.783 42.4516 296.908 43.0143C298.032 43.2957 298.875 44.1397 299.719 45.2651C300.281 46.3905 301.124 47.5159 301.406 48.9227C301.968 50.6107 301.968 52.2988 301.968 54.5496V57.0818H286.787C286.787 60.1766 287.35 62.7087 288.755 64.3968C290.161 66.0849 291.847 66.929 294.096 66.929C294.94 66.929 295.783 66.6476 296.345 66.6476C297.189 66.3663 298.032 66.0849 298.594 65.5222C299.157 65.2409 299.719 64.9595 300.281 64.6782C300.843 64.1155 301.124 63.8341 301.406 63.5528H301.687V68.6171C301.124 68.8984 300.562 69.1798 300 69.4611C299.438 69.7425 298.875 70.0238 298.313 70.0238C297.47 70.3052 296.908 70.5865 296.345 70.5865C295.783 70.8679 294.94 70.8679 294.096 70.8679ZM298.594 53.4242C298.313 52.2988 298.313 51.1734 298.032 50.3294C298.032 49.4853 297.47 48.6413 297.189 48.0786C296.908 47.5159 296.345 46.9532 295.502 46.3905C294.94 46.1092 294.096 46.1092 292.972 46.1092C292.129 46.1092 291.285 46.1092 290.442 46.3905C289.88 46.9532 289.317 47.5159 288.755 48.0786C288.193 48.9227 287.631 49.7667 287.35 50.6107C287.068 51.4548 286.787 52.2988 286.787 53.4242H298.594ZM388.271 78.4643C380.962 82.1218 373.653 83.8099 365.782 83.8099C357.348 83.8099 349.196 82.1218 341.324 78.4643C337.108 76.7762 333.734 74.5254 330.923 72.2746C327.268 69.1798 324.738 66.3663 322.77 63.5528C319.959 58.7699 318.273 54.2683 318.273 50.048C318.273 47.2346 318.835 44.1397 320.24 40.7635C321.084 37.95 322.489 35.4179 324.176 32.8858C325.019 31.479 326.144 30.0723 327.268 28.9469C329.517 26.1334 332.047 24.1639 334.296 23.6012C335.702 23.0386 337.108 22.7572 338.513 22.7572C342.449 22.7572 345.822 24.4453 348.633 28.3842C350.882 31.479 352.007 35.6993 352.569 40.7635C352.569 42.4516 352.569 43.8584 352.288 45.2651C352.007 49.4853 350.039 53.4242 347.228 57.3631C346.666 58.2072 345.822 59.0512 345.26 59.8953C344.979 60.1766 344.698 60.458 344.417 60.7393L343.573 61.5834L342.73 61.0207C343.011 60.458 343.573 59.8953 343.854 59.0512C344.979 56.2377 345.541 53.4242 345.541 50.8921C345.541 48.9227 344.979 46.3905 344.417 43.2957C343.854 41.0449 342.73 38.7941 341.043 36.262C338.513 32.3231 335.702 30.0723 332.61 30.0723C329.798 30.0723 327.55 31.7604 326.144 34.8552C325.301 35.9806 325.019 38.2314 325.301 41.6076C325.301 43.2957 325.582 45.5465 326.425 48.36C326.987 50.3294 328.112 52.8615 329.798 55.675C331.204 57.9258 333.453 60.458 336.545 63.2714C341.043 67.4917 346.947 71.1492 354.537 73.9627C360.721 76.2135 366.906 77.6202 373.372 77.9016C378.713 78.1829 383.492 77.9016 387.99 77.0575L388.271 78.4643ZM374.215 70.3052H370.561V67.2103C369.436 68.3357 368.312 69.4611 367.187 70.0238C366.344 70.5865 365.219 71.1492 363.814 71.1492C362.97 71.1492 362.127 70.8679 361.003 70.3052C360.159 70.0238 359.597 69.4611 359.035 68.6171C358.191 67.773 357.91 66.6476 357.348 65.2409C357.067 64.1155 356.786 62.4274 356.786 60.7393V43.0143H360.721V58.4885C360.721 59.8953 360.721 61.0207 360.721 62.1461C360.721 62.9901 361.003 63.8341 361.284 64.6782C361.565 65.2409 362.127 65.8036 362.689 66.0849C362.97 66.3663 363.814 66.6476 364.938 66.6476C365.782 66.6476 366.625 66.3663 367.749 65.8036C368.874 64.9595 369.717 64.3968 370.561 63.2714V43.0143H374.215V70.3052ZM391.926 63.5528V55.9564C391.082 55.9564 389.958 56.2377 388.552 56.2377C387.147 56.5191 386.022 56.8004 385.179 57.0818C384.335 57.3631 383.492 57.9258 382.93 58.7699C382.086 59.6139 381.805 60.7393 381.805 62.1461C381.805 63.5528 382.368 64.6782 382.93 65.5222C383.773 66.3663 384.616 66.6476 386.022 66.6476C387.147 66.6476 388.271 66.3663 389.114 65.8036C390.239 65.2409 391.082 64.3968 391.926 63.5528ZM391.926 67.4917C391.644 67.4917 391.082 68.0544 390.801 68.6171C390.239 68.8984 389.677 69.4611 389.114 69.7425C388.552 70.0238 387.99 70.5865 387.428 70.5865C386.584 70.8679 385.741 71.1492 384.616 71.1492C383.773 71.1492 382.93 70.8679 382.086 70.3052C381.243 70.0238 380.681 69.4611 380.119 68.6171C379.556 67.773 378.994 66.929 378.713 65.8036C378.151 64.6782 378.151 63.5528 378.151 62.4274C378.151 60.458 378.432 58.7699 378.994 57.6445C379.556 56.2377 380.681 55.1123 382.086 54.2683C383.211 53.7056 384.898 53.1429 386.584 52.8615C388.271 52.5802 389.958 52.2988 391.926 52.2988V51.4548C391.926 50.3294 391.644 49.4853 391.644 48.9227C391.363 48.0786 390.801 47.5159 390.52 47.2346C389.958 46.9532 389.395 46.6719 388.552 46.3905C387.99 46.3905 387.428 46.3905 386.584 46.3905C385.741 46.3905 384.616 46.3905 383.492 46.9532C382.368 47.2346 381.243 47.5159 380.119 48.0786H379.837V43.577C380.681 43.2957 381.524 43.0143 382.93 42.733C384.054 42.4516 385.46 42.1703 386.584 42.1703C387.99 42.1703 389.395 42.4516 390.52 42.733C391.363 43.0143 392.488 43.577 393.331 44.4211C393.893 44.9838 394.737 46.1092 395.018 47.2346C395.299 48.36 395.58 49.7667 395.58 51.4548V70.3052H391.926V67.4917ZM407.387 70.8679C405.419 70.8679 404.014 70.0238 402.608 68.6171C401.484 67.2103 400.921 64.9595 400.921 61.8647V46.6719H398.672V43.0143H400.921V35.1366H404.857V43.0143H411.604V46.6719H404.857V59.6139C404.857 61.0207 404.857 62.1461 404.857 62.9901C404.857 63.8341 405.138 64.3968 405.138 64.9595C405.419 65.5222 405.981 66.0849 406.263 66.3663C406.825 66.6476 407.668 66.6476 408.512 66.6476C409.074 66.6476 409.636 66.6476 410.198 66.3663C410.76 66.0849 411.042 66.0849 411.323 65.8036H411.604V70.0238C410.76 70.3052 410.198 70.5865 409.355 70.5865C408.793 70.8679 407.949 70.8679 407.387 70.8679ZM420.6 70.8679C418.632 70.8679 416.945 70.0238 415.821 68.6171C414.696 67.2103 414.134 64.9595 414.134 61.8647V46.6719H411.604V43.0143H414.134V35.1366H418.07V43.0143H424.816V46.6719H418.07V59.6139C418.07 61.0207 418.07 62.1461 418.07 62.9901C418.07 63.8341 418.07 64.3968 418.351 64.9595C418.632 65.5222 418.913 66.0849 419.475 66.3663C420.037 66.6476 420.6 66.6476 421.443 66.6476C422.286 66.6476 422.849 66.6476 423.411 66.3663C423.973 66.0849 424.254 66.0849 424.535 65.8036H424.816V70.0238C423.973 70.3052 423.411 70.5865 422.567 70.5865C422.005 70.8679 421.162 70.8679 420.6 70.8679ZM439.153 47.7973H438.872C438.591 47.7973 438.31 47.7973 438.029 47.7973C437.748 47.7973 437.467 47.7973 436.904 47.7973C436.061 47.7973 434.937 47.7973 434.093 48.36C432.969 48.9227 432.125 49.7667 431.282 50.8921V70.3052H427.628V43.0143H431.282V46.9532C432.688 45.5465 433.812 44.4211 434.656 43.8584C435.78 43.2957 436.623 43.0143 437.748 43.0143C438.029 43.0143 438.31 43.0143 438.591 43.0143C438.872 43.0143 438.872 43.0143 439.153 43.0143V47.7973ZM459.956 56.5191C459.956 61.302 459.113 64.6782 457.426 67.2103C455.458 69.7425 453.209 71.1492 450.117 71.1492C447.025 71.1492 444.776 69.7425 443.089 67.2103C441.121 64.6782 440.278 61.0207 440.278 56.5191C440.278 52.0175 441.121 48.6413 443.089 46.1092C444.776 43.577 447.306 42.1703 450.117 42.1703C453.209 42.1703 455.458 43.577 457.426 46.1092C459.113 48.36 459.956 52.0175 459.956 56.5191ZM456.302 56.5191C456.302 53.1429 455.739 50.3294 454.615 48.6413C453.49 46.9532 452.085 46.1092 450.117 46.1092C448.149 46.1092 446.744 46.9532 445.619 48.6413C444.776 50.3294 444.214 53.1429 444.214 56.5191C444.214 59.8953 444.776 62.7087 445.619 64.3968C446.744 66.0849 448.149 66.929 450.117 66.929C452.085 66.929 453.49 66.0849 454.615 64.3968C455.739 62.7087 456.302 60.1766 456.302 56.5191ZM484.976 70.8679C482.727 70.8679 481.04 70.5865 479.353 70.0238C477.948 69.4611 476.542 68.8984 475.137 68.0544V62.1461H475.418C476.823 63.5528 478.229 64.6782 479.916 65.5222C481.602 66.3663 483.008 66.6476 484.695 66.6476C486.662 66.6476 488.349 66.0849 489.474 64.9595C490.598 63.8341 491.16 62.4274 491.16 60.7393C491.16 59.3326 490.879 57.9258 490.317 57.0818C489.755 56.2377 488.911 55.3937 487.506 55.1123C486.662 54.831 485.819 54.5496 484.976 54.2683C484.413 53.9869 483.289 53.7056 482.164 53.4242C481.321 53.1429 480.197 52.5802 479.634 52.2988C478.791 51.7361 477.948 50.8921 477.385 50.048C476.823 49.4853 476.261 48.36 475.98 47.2346C475.699 46.3905 475.418 44.9838 475.418 43.577C475.418 40.7635 476.542 38.2314 478.229 36.262C480.197 34.2925 482.446 33.1671 485.257 33.1671C486.943 33.1671 488.63 33.4485 490.036 33.7298C491.441 34.2925 492.847 34.8552 493.971 35.4179V41.3262H493.69C492.847 40.2008 491.723 39.3568 490.317 38.5127C488.63 37.6687 487.225 37.3873 485.538 37.3873C483.851 37.3873 482.446 37.95 481.321 39.0754C480.197 39.9195 479.634 41.3262 479.634 43.0143C479.634 44.7024 479.916 45.8278 480.478 46.6719C481.321 47.7973 482.164 48.36 483.289 48.9227C484.132 49.204 485.257 49.4853 486.381 49.7667C487.506 50.048 488.63 50.3294 489.474 50.6107C491.441 51.4548 492.847 52.5802 493.971 54.2683C494.815 55.675 495.377 57.6445 495.377 59.8953C495.377 61.302 495.096 62.7087 494.534 64.1155C493.971 65.5222 493.409 66.6476 492.566 67.4917C491.723 68.6171 490.598 69.4611 489.474 70.0238C488.068 70.5865 486.662 70.8679 484.976 70.8679ZM510.557 47.7973C510.276 47.7973 509.714 47.7973 509.433 47.7973C509.152 47.7973 508.871 47.7973 508.308 47.7973C507.465 47.7973 506.341 47.7973 505.497 48.36C504.373 48.9227 503.529 49.7667 502.686 50.8921V70.3052H499.032V43.0143H502.686V46.9532C504.092 45.5465 505.216 44.4211 506.06 43.8584C507.184 43.2957 508.308 43.0143 509.152 43.0143C509.433 43.0143 509.714 43.0143 509.995 43.0143C510.276 43.0143 510.276 43.0143 510.557 43.0143V47.7973ZM517.304 70.3052H513.65V32.3231H517.304V70.3052Z" fill="#F9FAF7"/>
<path fill-rule="evenodd" clip-rule="evenodd" d="M6.23151 8.40839C4.26368 9.25244 30.6888 -1.72017 46.9936 1.09332C64.423 4.18816 32.0944 76.7762 30.4077 83.5285C34.0622 77.0575 94.5026 -27.0416 94.5026 6.7203C93.3781 27.5401 65.2663 87.4674 61.8929 109.131C68.0775 93.0944 118.398 24.7266 129.642 24.1639C147.353 24.1639 136.108 122.073 142.574 122.073C149.04 122.073 186.99 95.0638 188.677 92.5317C190.083 91.969 518.71 90.8436 519.834 90.8436C520.115 91.4063 519.834 94.5011 519.834 95.3452L190.645 97.3146C183.336 102.942 143.698 142.049 137.514 126.856C130.767 109.975 136.389 46.1091 126.55 44.9837C110.245 46.9532 69.202 125.168 51.2104 130.514C38.5601 128.544 81.5712 38.7941 79.8845 27.2588C60.7684 53.9869 30.1265 90.2809 9.88604 131.921C2.85809 140.361 -2.76427 138.392 1.4525 123.199C3.98256 105.192 54.5838 13.1913 27.8776 17.4116C18.3196 19.0996 1.73362 25.2893 0.328025 24.7266C6.23151 8.40839 0.328026 24.7266 6.23151 8.40839Z" fill="url(#paint0_linear)"/>
<path d="M221.006 149.927H217.913V133.327H221.006V149.927ZM221.287 130.795H217.632V127.7H221.287V130.795ZM228.596 149.927H225.504V127.138H228.596V149.927ZM253.334 150.208C251.648 150.208 250.242 149.927 248.836 149.646C247.431 149.083 246.306 148.52 245.463 147.395C244.339 146.551 243.776 145.425 243.214 143.737C242.652 142.331 242.371 140.924 242.371 138.954C242.371 137.266 242.652 135.578 243.214 134.171C243.776 132.765 244.339 131.639 245.463 130.514C246.306 129.67 247.431 128.826 248.836 128.263C250.242 127.982 251.648 127.7 253.334 127.7C254.178 127.7 254.74 127.7 255.583 127.7C256.145 127.982 256.989 127.982 257.551 128.263C258.113 128.263 258.676 128.544 259.238 128.826C259.8 128.826 260.362 129.107 260.643 129.388V133.046H260.362C260.081 132.765 259.8 132.483 259.519 132.202C258.957 131.639 258.394 131.358 257.832 131.077C257.27 130.795 256.427 130.514 255.864 130.514C255.021 130.233 254.178 129.951 253.334 129.951C252.21 129.951 251.366 130.233 250.242 130.514C249.399 131.077 248.555 131.639 247.993 132.483C247.15 133.046 246.587 133.89 246.306 135.297C246.025 136.422 245.744 137.548 245.744 138.954C245.744 140.361 246.025 141.768 246.306 142.893C246.869 144.019 247.431 144.863 247.993 145.707C248.555 146.269 249.399 146.832 250.242 147.113C251.366 147.676 252.21 147.676 253.334 147.676C254.178 147.676 255.021 147.676 255.864 147.395C256.708 147.395 257.27 147.113 257.832 146.832C258.676 146.269 258.957 145.988 259.519 145.707C259.8 145.425 260.362 145.144 260.643 144.863V148.52C260.362 148.52 259.8 148.802 259.238 149.083C258.676 149.364 258.113 149.364 257.551 149.646C256.708 149.927 256.145 149.927 255.583 150.208C255.021 150.208 254.178 150.208 253.334 150.208ZM278.354 141.768C278.354 144.581 277.792 146.551 276.386 148.239C274.699 149.646 272.731 150.49 270.483 150.49C267.952 150.49 265.985 149.646 264.298 147.958C262.892 146.551 262.33 144.3 262.33 141.768C262.33 138.954 262.892 136.704 264.579 135.297C265.985 133.89 267.952 133.046 270.483 133.046C272.731 133.046 274.699 133.89 276.386 135.297C277.792 136.704 278.354 138.954 278.354 141.768ZM275.262 141.768C275.262 139.517 274.98 138.11 274.137 136.985C273.294 135.86 271.888 135.297 270.483 135.297C268.796 135.297 267.671 135.86 266.547 136.985C265.703 138.11 265.422 139.517 265.422 141.768C265.422 143.737 265.703 145.425 266.547 146.269C267.671 147.395 268.796 147.958 270.483 147.958C271.888 147.958 273.294 147.395 274.137 146.269C274.98 145.425 275.262 143.737 275.262 141.768ZM284.82 149.927H281.727V127.138H284.82V149.927ZM304.217 141.768C304.217 144.581 303.373 146.551 301.968 148.239C300.562 149.646 298.594 150.49 296.064 150.49C293.534 150.49 291.566 149.646 290.161 147.958C288.755 146.551 287.912 144.3 287.912 141.768C287.912 138.954 288.755 136.704 290.161 135.297C291.566 133.89 293.534 133.046 296.064 133.046C298.594 133.046 300.562 133.89 301.968 135.297C303.373 136.704 304.217 138.954 304.217 141.768ZM300.843 141.768C300.843 139.517 300.562 138.11 299.719 136.985C298.875 135.86 297.751 135.297 296.064 135.297C294.378 135.297 293.253 135.86 292.41 136.985C291.566 138.11 291.004 139.517 291.004 141.768C291.004 143.737 291.566 145.425 292.41 146.269C293.253 147.395 294.378 147.958 296.064 147.958C297.47 147.958 298.875 147.395 299.719 146.269C300.562 145.425 300.843 143.737 300.843 141.768ZM316.867 136.422C316.586 136.422 316.305 136.422 316.024 136.422C315.743 136.422 315.461 136.422 315.18 136.422C314.337 136.422 313.494 136.422 312.65 136.704C311.807 136.985 310.964 137.548 310.401 138.11V149.927H307.309V133.327H310.401V135.86C311.526 135.015 312.369 134.453 313.212 133.89C314.056 133.609 314.899 133.327 315.743 133.327C316.024 133.327 316.305 133.609 316.305 133.609C316.586 133.609 316.586 133.609 316.867 133.609V136.422ZM326.987 150.208C324.176 150.208 321.927 149.646 320.24 147.958C318.554 146.551 317.71 144.581 317.71 141.768C317.71 139.236 318.554 136.985 320.24 135.297C321.646 133.89 323.614 133.046 326.144 133.046C327.268 133.046 328.393 133.046 329.236 133.327C330.08 133.609 330.923 134.171 331.485 134.734C332.047 135.578 332.61 136.141 332.891 137.266C333.453 138.11 333.453 139.236 333.453 140.361V142.049H321.084C321.084 144.019 321.365 145.425 322.489 146.269C323.614 147.395 325.019 147.958 326.987 147.958C327.549 147.958 328.393 147.676 328.955 147.676C329.517 147.395 330.08 147.395 330.642 147.113C331.204 146.832 331.766 146.832 332.047 146.551C332.328 146.269 332.891 145.988 332.891 145.988H333.172V148.802C332.891 149.083 332.328 149.083 331.766 149.364C331.204 149.646 330.923 149.646 330.361 149.927C329.798 149.927 329.236 150.208 328.674 150.208C328.393 150.208 327.831 150.208 326.987 150.208ZM330.642 139.798C330.642 139.236 330.361 138.392 330.361 137.829C330.08 137.266 329.798 136.985 329.517 136.422C329.236 136.141 328.674 135.86 328.112 135.578C327.549 135.297 326.987 135.297 326.144 135.297C325.301 135.297 324.457 135.297 323.895 135.578C323.333 135.86 322.77 136.141 322.489 136.704C321.927 136.985 321.646 137.548 321.365 138.11C321.084 138.673 321.084 139.236 321.084 139.798H330.642ZM352.007 150.208C350.601 150.208 349.477 150.208 348.633 149.927C347.509 149.646 346.666 149.364 345.822 148.802V145.707H346.103C346.384 145.988 346.666 146.269 346.947 146.551C347.228 146.551 347.79 146.832 348.352 147.113C348.914 147.395 349.477 147.676 350.039 147.676C350.601 147.958 351.445 147.958 352.007 147.958C352.569 147.958 353.131 147.958 353.693 147.676C354.256 147.676 354.537 147.676 354.818 147.395C355.099 147.113 355.38 146.832 355.661 146.832C355.942 146.551 355.942 145.988 355.942 145.425C355.942 144.863 355.661 144.3 355.38 144.019C354.818 143.737 354.256 143.456 353.131 143.175C352.85 143.175 352.288 142.893 351.726 142.893C351.163 142.893 350.601 142.612 350.039 142.612C348.633 142.049 347.509 141.486 346.947 140.924C346.384 140.08 346.103 139.236 346.103 138.11C346.103 136.704 346.666 135.297 347.79 134.453C349.196 133.609 350.601 133.046 352.85 133.046C353.693 133.046 354.818 133.046 355.661 133.327C356.786 133.609 357.629 133.89 358.472 134.171V137.266H358.191C357.348 136.704 356.505 136.141 355.661 135.86C354.537 135.578 353.693 135.297 352.569 135.297C351.726 135.297 350.882 135.578 350.039 135.86C349.477 136.422 349.196 136.985 349.196 137.829C349.196 138.392 349.196 138.954 349.758 139.236C350.039 139.517 350.882 139.798 351.726 140.08C352.007 140.08 352.569 140.361 353.131 140.361C353.693 140.642 354.256 140.642 355.099 140.642C356.224 141.205 357.348 141.486 357.91 142.331C358.754 142.893 359.035 144.019 359.035 145.144C359.035 145.988 358.754 146.551 358.472 147.113C358.191 147.676 357.91 148.239 357.067 148.802C356.505 149.364 355.942 149.646 355.099 149.927C354.256 150.208 353.131 150.208 352.007 150.208ZM375.902 149.927H372.809V147.958C371.966 148.802 371.123 149.364 370.279 149.646C369.436 150.208 368.593 150.49 367.468 150.49C366.625 150.49 365.782 150.208 365.219 149.927C364.376 149.646 363.814 149.364 363.251 148.802C362.97 148.239 362.408 147.676 362.127 146.832C361.846 146.269 361.846 145.144 361.846 144.019V133.327H364.657V142.893C364.657 143.737 364.938 144.3 364.938 144.863C364.938 145.707 365.219 145.988 365.5 146.551C365.5 146.832 366.063 147.113 366.344 147.395C366.906 147.676 367.468 147.676 368.312 147.676C368.874 147.676 369.717 147.676 370.561 147.113C371.404 146.832 372.247 146.269 372.809 145.707V133.327H375.902V149.927ZM411.885 149.927H408.512V131.077L402.327 143.737H400.359L394.174 131.077V149.927H391.082V127.982H395.58L401.484 140.08L407.387 127.982H411.885V149.927ZM419.475 149.927H416.383V133.327H419.475V149.927ZM419.756 130.795H416.383V127.7H419.756V130.795ZM429.033 150.208C427.628 150.208 426.503 150.208 425.66 149.927C424.535 149.646 423.692 149.364 422.849 148.802V145.707H423.13C423.411 145.988 423.692 146.269 423.973 146.551C424.254 146.551 424.816 146.832 425.379 147.113C425.941 147.395 426.503 147.676 427.065 147.676C427.628 147.958 428.471 147.958 429.033 147.958C429.595 147.958 430.158 147.958 430.72 147.676C431.282 147.676 431.563 147.676 431.844 147.395C432.125 147.113 432.407 146.832 432.688 146.832C432.969 146.551 432.969 145.988 432.969 145.425C432.969 144.863 432.688 144.3 432.407 144.019C431.844 143.737 431.282 143.456 430.158 143.175C429.876 143.175 429.314 142.893 428.752 142.893C428.19 142.893 427.628 142.612 427.065 142.612C425.66 142.049 424.535 141.486 423.973 140.924C423.411 140.08 423.13 139.236 423.13 138.11C423.13 136.704 423.692 135.297 424.816 134.453C426.222 133.609 427.628 133.046 429.876 133.046C430.72 133.046 431.844 133.046 432.969 133.327C433.812 133.609 434.655 133.89 435.499 134.171V137.266H435.218C434.374 136.704 433.531 136.141 432.688 135.86C431.563 135.578 430.72 135.297 429.595 135.297C428.752 135.297 427.909 135.578 427.065 135.86C426.503 136.422 426.222 136.985 426.222 137.829C426.222 138.392 426.222 138.954 426.784 139.236C427.065 139.517 427.909 139.798 428.752 140.08C429.314 140.08 429.595 140.361 430.158 140.361C430.72 140.642 431.282 140.642 432.125 140.642C433.25 141.205 434.374 141.486 434.937 142.331C435.78 142.893 436.061 144.019 436.061 145.144C436.061 145.988 435.78 146.551 435.499 147.113C435.218 147.676 434.937 148.239 434.374 148.802C433.531 149.364 432.969 149.646 432.125 149.927C431.282 150.208 430.158 150.208 429.033 150.208ZM452.928 149.927H450.117V147.958C448.993 148.802 448.149 149.364 447.306 149.646C446.462 150.208 445.619 150.49 444.495 150.49C443.651 150.49 443.089 150.208 442.246 149.927C441.683 149.646 440.84 149.364 440.559 148.802C439.997 148.239 439.434 147.676 439.153 146.832C438.872 146.269 438.872 145.144 438.872 144.019V133.327H441.965V142.893C441.965 143.737 441.965 144.3 441.965 144.863C441.965 145.707 442.246 145.988 442.527 146.551C442.808 146.832 443.089 147.113 443.37 147.395C443.932 147.676 444.495 147.676 445.338 147.676C445.9 147.676 446.744 147.676 447.587 147.113C448.43 146.832 449.274 146.269 450.117 145.707V133.327H452.928V149.927ZM466.984 136.422C466.703 136.422 466.422 136.422 466.141 136.422C465.86 136.422 465.578 136.422 465.297 136.422C464.454 136.422 463.611 136.422 462.767 136.704C461.924 136.985 461.362 137.548 460.518 138.11V149.927H457.426V133.327H460.518V135.86C461.643 135.015 462.486 134.453 463.33 133.89C464.173 133.609 465.016 133.327 465.86 133.327C466.141 133.327 466.422 133.609 466.703 133.609H466.984V136.422ZM479.072 145.988V141.205C478.229 141.486 477.385 141.486 476.261 141.486C475.136 141.768 474.293 141.768 473.45 142.049C472.888 142.331 472.044 142.612 471.482 142.893C470.92 143.456 470.639 144.019 470.639 144.863C470.639 145.988 471.201 146.551 471.763 147.113C472.325 147.676 473.169 147.676 474.293 147.676C475.136 147.676 475.98 147.676 476.823 147.113C477.667 146.832 478.229 146.269 479.072 145.988ZM479.072 148.239C478.791 148.239 478.51 148.52 477.948 148.802C477.667 149.083 477.104 149.364 476.823 149.646C476.261 149.927 475.699 149.927 475.136 150.208C474.855 150.208 474.012 150.49 473.169 150.49C472.325 150.49 471.763 150.208 470.92 149.927C470.357 149.646 469.795 149.364 469.233 148.802C468.671 148.52 468.39 147.958 468.109 147.113C467.827 146.551 467.546 145.988 467.546 145.144C467.546 144.019 467.827 142.893 468.39 142.331C468.952 141.486 469.795 140.924 470.92 140.361C472.044 139.798 473.169 139.517 474.574 139.517C475.98 139.236 477.385 139.236 479.072 138.954V138.673C479.072 137.829 478.791 137.266 478.791 136.985C478.51 136.704 478.229 136.141 477.667 136.141C477.385 135.86 476.823 135.578 476.261 135.578C475.699 135.578 475.136 135.578 474.574 135.578C474.012 135.578 473.169 135.578 472.044 135.86C471.201 135.86 470.357 136.141 469.233 136.704V133.89C469.795 133.609 470.357 133.609 471.482 133.327C472.606 133.046 473.731 133.046 474.574 133.046C475.98 133.046 476.823 133.046 477.667 133.327C478.791 133.609 479.353 133.89 480.197 134.171C480.759 134.734 481.321 135.297 481.602 136.141C481.883 136.704 482.164 137.548 482.164 138.673V149.927H479.072V148.239Z" fill="#F9FAF7"/>
<path fill-rule="evenodd" clip-rule="evenodd" d="M115.024 77.9016C116.43 77.3389 115.024 79.027 115.305 77.6203C125.988 69.1798 129.08 74.2441 127.393 86.3421L116.149 144.019C121.771 143.737 130.205 143.456 132.172 143.456C142.293 142.612 133.578 149.364 130.767 151.334C127.112 153.584 120.647 153.866 114.743 154.429L111.089 173.279C110.807 173.56 112.494 175.53 100.125 176.374H99.8438C101.531 169.34 99.5627 177.78 104.061 155.273L59.0817 157.242C54.8649 156.961 64.4229 141.205 72.2942 129.107C88.0368 105.192 112.494 79.5897 115.024 77.9016ZM74.5432 145.707L106.31 144.3L118.679 86.6235C102.093 100.128 80.1655 125.168 74.5432 145.707Z" fill="url(#paint1_linear)"/>
</g>
<defs>
<linearGradient id="paint0_linear" x1="-2.28106" y1="57.7533" x2="519.123" y2="57.7533" gradientUnits="userSpaceOnUse">
<stop stop-color="#36398A"/>
<stop offset="0.0001" stop-color="#FF6600"/>
<stop offset="0.0002" stop-color="#FF3300"/>
<stop offset="0.0003" stop-color="#F9FAF7"/>
</linearGradient>
<linearGradient id="paint1_linear" x1="58.1469" y1="124.967" x2="136.958" y2="124.966" gradientUnits="userSpaceOnUse">
<stop stop-color="#F9FAF7"/>
<stop offset="0.0001" stop-color="#6D0002"/>
<stop offset="0.0002" stop-color="#F9FAF7"/>
</linearGradient>
<clipPath id="clip0">
<rect width="533" height="195" fill="white"/>
</clipPath>
</defs>
</svg>